<svg id="freios" xmlns="http://www.w3.org/2000/svg" width="57.131" height="57.131" viewBox="0 0 57.131 57.131">
  <g id="Grupo_1179" data-name="Grupo 1179">
    <g id="Grupo_1178" data-name="Grupo 1178">
      <path id="Caminho_1520" data-name="Caminho 1520" d="M31.049,4.968c-.427,0-.838.011-1.242.03V1.242A1.241,1.241,0,0,0,28.565,0,28.6,28.6,0,0,0,0,28.565a1.241,1.241,0,0,0,1.242,1.242H5c-.019.4-.03.815-.03,1.242A26.081,26.081,0,1,0,31.049,4.968ZM2.514,27.323A26.116,26.116,0,0,1,27.323,2.513V9.978A18.655,18.655,0,0,0,9.977,27.323H2.514ZM31.049,54.647a23.624,23.624,0,0,1-23.6-23.6c0-.43.01-.842.03-1.242h3.7a1.241,1.241,0,0,0,1.242-1.242A16.164,16.164,0,0,1,28.565,12.42a1.241,1.241,0,0,0,1.242-1.242v-3.7c.4-.02.812-.03,1.242-.03a23.6,23.6,0,0,1,0,47.2Z"/>
    </g>
  </g>
  <g id="Grupo_1181" data-name="Grupo 1181" transform="translate(17.388 17.388)">
    <g id="Grupo_1180" data-name="Grupo 1180">
      <path id="Caminho_1521" data-name="Caminho 1521" d="M125.662,112a13.662,13.662,0,1,0,13.662,13.662A13.678,13.678,0,0,0,125.662,112Zm0,24.84a11.178,11.178,0,1,1,11.178-11.178A11.19,11.19,0,0,1,125.662,136.84Z" transform="translate(-112 -112)"/>
    </g>
  </g>
  <g id="Grupo_1183" data-name="Grupo 1183" transform="translate(24.84 24.84)">
    <g id="Grupo_1182" data-name="Grupo 1182">
      <path id="Caminho_1522" data-name="Caminho 1522" d="M166.21,160a6.21,6.21,0,1,0,6.21,6.21A6.217,6.217,0,0,0,166.21,160Zm0,9.936a3.726,3.726,0,1,1,3.726-3.726A3.73,3.73,0,0,1,166.21,169.936Z" transform="translate(-160 -160)"/>
    </g>
  </g>
</svg>
