<svg xmlns="http://www.w3.org/2000/svg" xmlns:xlink="http://www.w3.org/1999/xlink" width="663.962" height="469.469" viewBox="0 0 663.962 469.469">
  <defs>
    <clipPath id="clip-path">
      <path id="Caminho_36" data-name="Caminho 36" d="M367.771,153.163v17.95l-16.182,9.342,18.022,10.626-18.022,10.4,18.022,10.626-18.022,10.4,18.022,10.626-18.056,10.424,16.216,9.361v17.951h4.29V250.449l-11.925-6.885,17.987-10.385L360.1,222.554l18.021-10.4L360.1,201.524l18.021-10.4L360.1,180.494l11.959-6.9V153.163Z" transform="translate(-351.555 -153.163)" fill="none"/>
    </clipPath>
    <linearGradient id="linear-gradient" x1="-10.436" y1="2.962" x2="-10.406" y2="2.962" gradientUnits="objectBoundingBox">
      <stop offset="0" stop-color="#e2e4e6"/>
      <stop offset="0.006" stop-color="#e2e4e6"/>
      <stop offset="0.253" stop-color="#fffce4"/>
      <stop offset="0.395" stop-color="#f0ead7"/>
      <stop offset="0.596" stop-color="#d6ccc1"/>
      <stop offset="0.787" stop-color="#efefef"/>
      <stop offset="1" stop-color="#d9d2b8"/>
    </linearGradient>
    <clipPath id="clip-path-2">
      <rect id="Retângulo_323" data-name="Retângulo 323" width="663.962" height="469.468" fill="none"/>
    </clipPath>
  </defs>
  <g id="Grupo_1142" data-name="Grupo 1142" transform="translate(-960 -2348.473)">
    <g id="Grupo_1141" data-name="Grupo 1141" transform="translate(1237.256 2469.266)">
      <g id="Grupo_48" data-name="Grupo 48" transform="translate(0 0)" clip-path="url(#clip-path)">
        <rect id="Retângulo_14" data-name="Retângulo 14" width="26.568" height="117.713" transform="translate(0 0)" fill="url(#linear-gradient)"/>
      </g>
    </g>
    <g id="Grupo_1140" data-name="Grupo 1140" transform="translate(960 2348.473)" clip-path="url(#clip-path-2)">
      <path id="Caminho_1435" data-name="Caminho 1435" d="M141.817,381.321q5.908,3.653,5.908,11.138a12.967,12.967,0,0,1-13.6,13.29H87.335v-48.2h45.949a13.026,13.026,0,0,1,10.128,4.119,13.2,13.2,0,0,1,3.375,9.171,12.371,12.371,0,0,1-4.97,10.483m-8.533-5.3q2.438,0,2.439-3.61t-2.439-3.61h-34.7v7.22Zm.756,18.474q2.431,0,2.432-3.61t-2.432-3.61H98.588V394.5Z" transform="translate(-18.458 -75.566)" fill="#ffd400"/>
      <path id="Caminho_1436" data-name="Caminho 1436" d="M224.948,405.749H209.569l-24.1-27.006h28.976q3.093,0,3.093-4.97t-3.093-4.97H179.561v36.946H168.309v-48.2H215.1a12.044,12.044,0,0,1,10.222,5.065,19.681,19.681,0,0,1,0,22.318,12.044,12.044,0,0,1-10.222,5.062h-4.314Z" transform="translate(-35.571 -75.566)" fill="#ffd400"/>
      <path id="Caminho_1437" data-name="Caminho 1437" d="M310.116,405.749H298.863V390.464H269.231V379.212h29.632v-6.753q0-3.655-2.438-3.656H264.542q-2.346,0-2.345,3.648v33.3H250.945V372.429a15.512,15.512,0,0,1,3.8-10.482,12.351,12.351,0,0,1,9.8-4.4h31.883a12.454,12.454,0,0,1,9.893,4.4,15.512,15.512,0,0,1,3.8,10.482Z" transform="translate(-53.036 -75.566)" fill="#ffd400"/>
      <path id="Caminho_1438" data-name="Caminho 1438" d="M389.495,390.886a15.481,15.481,0,0,1-3.657,10.376,12.658,12.658,0,0,1-9.94,4.487H334.262V394.5H375.9q2.343,0,2.344-3.61t-2.344-3.61H345.609a12.64,12.64,0,0,1-9.94-4.5,14.969,14.969,0,0,1-3.751-10.316,15.445,15.445,0,0,1,3.845-10.5,12.479,12.479,0,0,1,9.846-4.407h41.635V368.8H345.519q-2.349,0-2.349,3.657,0,3.564,2.349,3.563H375.87a12.7,12.7,0,0,1,9.961,4.487,15.468,15.468,0,0,1,3.664,10.376" transform="translate(-70.149 -75.566)" fill="#ffd400"/>
      <path id="Caminho_1439" data-name="Caminho 1439" d="M471.259,373.867a17.513,17.513,0,0,1-3.564,11.065,12.035,12.035,0,0,1-10.127,5.158H422.122v15.66H410.868v-48.2h46.7a12.039,12.039,0,0,1,10.127,5.158,17.909,17.909,0,0,1,3.564,11.159m-11.253,0q0-5.064-2.438-5.064H422.122v10.034h35.446q2.438,0,2.438-4.97" transform="translate(-86.834 -75.566)" fill="#ffd400"/>
      <path id="Caminho_1440" data-name="Caminho 1440" d="M550.026,405.749H534.647l-24.1-27.006h28.977q3.095,0,3.094-4.97t-3.094-4.97H504.64v36.946H493.387v-48.2H540.18a12.042,12.042,0,0,1,10.222,5.065,19.682,19.682,0,0,1,0,22.318,12.042,12.042,0,0,1-10.222,5.062h-4.313Z" transform="translate(-104.274 -75.566)" fill="#ffd400"/>
      <rect id="Retângulo_321" data-name="Retângulo 321" width="11.253" height="48.2" transform="translate(454.284 281.983)" fill="#ffd400"/>
      <path id="Caminho_1441" data-name="Caminho 1441" d="M658.877,405.749H647.624V376.4L627.557,405l-20.067-28.6v29.351H596.236v-48.2h11.816L627.557,385.4l19.6-27.851h11.721Z" transform="translate(-126.01 -75.566)" fill="#ffd400"/>
      <path id="Caminho_1442" data-name="Caminho 1442" d="M733.089,368.8H692.86v7.22h37.6v11.253h-37.6V394.5H733v11.253H681.608v-48.2h51.481Z" transform="translate(-144.053 -75.565)" fill="#ffd400"/>
      <path id="Caminho_1443" data-name="Caminho 1443" d="M418.451,434.124a6.253,6.253,0,0,1,6.1,3.944H421.96a3.662,3.662,0,0,0-3.51-2.057c-2.6,0-4.491,1.849-4.491,4.811s1.886,4.831,4.491,4.831a3.664,3.664,0,0,0,3.51-2.056h2.586a6.236,6.236,0,0,1-6.1,3.924,6.7,6.7,0,1,1,0-13.4" transform="translate(-87.021 -91.749)" fill="#e8e8e8"/>
      <path id="Caminho_1444" data-name="Caminho 1444" d="M443.188,436.07h-5.1v3.849h4.528v1.754h-4.528v4.019h5.1v1.756h-7.246V434.315h7.246Z" transform="translate(-92.133 -91.789)" fill="#e8e8e8"/>
      <path id="Caminho_1445" data-name="Caminho 1445" d="M464.039,434.315v13.133h-2.151l-6.473-9.793v9.793h-2.15V434.315h2.15l6.473,9.775v-9.775Z" transform="translate(-95.794 -91.789)" fill="#e8e8e8"/>
      <path id="Caminho_1446" data-name="Caminho 1446" d="M474.438,434.339h9.152v1.755H480.1v11.359h-2.152V436.094h-3.509Z" transform="translate(-100.269 -91.795)" fill="#e8e8e8"/>
      <path id="Caminho_1447" data-name="Caminho 1447" d="M498.107,434.339c3.113,0,4.641,1.793,4.641,3.925a3.734,3.734,0,0,1-3.038,3.755l3.245,5.434h-2.565l-3.02-5.245h-1.642v5.245h-2.15V434.339Zm0,1.755h-2.379v4.4h2.379c1.679,0,2.434-.924,2.434-2.226,0-1.322-.755-2.17-2.434-2.17" transform="translate(-104.315 -91.795)" fill="#e8e8e8"/>
      <path id="Caminho_1448" data-name="Caminho 1448" d="M519.274,447.539a6.708,6.708,0,1,1,6.7-6.717,6.564,6.564,0,0,1-6.7,6.717m0-1.868c2.6,0,4.491-1.887,4.491-4.849s-1.887-4.812-4.491-4.812-4.491,1.849-4.491,4.812,1.887,4.849,4.491,4.849" transform="translate(-108.329 -91.749)" fill="#e8e8e8"/>
      <path id="Caminho_1449" data-name="Caminho 1449" d="M555.733,444.769h-5.491l-.944,2.68h-2.245l4.7-13.133h2.491l4.7,13.133h-2.264ZM553,436.919l-2.151,6.1h4.283Z" transform="translate(-115.616 -91.79)" fill="#e8e8e8"/>
      <path id="Caminho_1450" data-name="Caminho 1450" d="M569.471,434.339h2.151V442.7a2.972,2.972,0,1,0,5.944,0v-8.359h2.15v8.321c0,3.339-2.415,4.924-5.151,4.924-2.755,0-5.095-1.585-5.095-4.924Z" transform="translate(-120.354 -91.795)" fill="#e8e8e8"/>
      <path id="Caminho_1451" data-name="Caminho 1451" d="M589.927,434.339h9.151v1.755h-3.491v11.359h-2.151V436.094h-3.51Z" transform="translate(-124.677 -91.795)" fill="#e8e8e8"/>
      <path id="Caminho_1452" data-name="Caminho 1452" d="M614.857,447.539a6.708,6.708,0,1,1,6.7-6.717,6.563,6.563,0,0,1-6.7,6.717m0-1.868c2.6,0,4.491-1.887,4.491-4.849s-1.886-4.812-4.491-4.812-4.491,1.849-4.491,4.812,1.886,4.849,4.491,4.849" transform="translate(-128.53 -91.749)" fill="#e8e8e8"/>
      <path id="Caminho_1453" data-name="Caminho 1453" d="M632.61,434.339h2.32l4.6,10.283,4.585-10.283h2.3v13.114h-2.152v-8.982l-4,8.982H638.78l-4.019-8.982v8.982H632.61Z" transform="translate(-133.698 -91.795)" fill="#e8e8e8"/>
      <path id="Caminho_1454" data-name="Caminho 1454" d="M664.287,447.539a6.708,6.708,0,1,1,6.7-6.717,6.563,6.563,0,0,1-6.7,6.717m0-1.868c2.6,0,4.491-1.887,4.491-4.849s-1.887-4.812-4.491-4.812-4.491,1.849-4.491,4.812,1.886,4.849,4.491,4.849" transform="translate(-138.977 -91.749)" fill="#e8e8e8"/>
      <path id="Caminho_1455" data-name="Caminho 1455" d="M681.179,434.339h9.151v1.755H686.84v11.359h-2.151V436.094h-3.51Z" transform="translate(-143.962 -91.795)" fill="#e8e8e8"/>
      <rect id="Retângulo_322" data-name="Retângulo 322" width="2.152" height="13.114" transform="translate(552.311 342.544)" fill="#e8e8e8"/>
      <path id="Caminho_1456" data-name="Caminho 1456" d="M720.176,434.339h2.264l-4.924,13.114h-2.491l-4.945-13.114h2.3l3.887,10.906Z" transform="translate(-150.071 -91.795)" fill="#e8e8e8"/>
      <path id="Caminho_1457" data-name="Caminho 1457" d="M738.6,447.539a6.708,6.708,0,1,1,6.7-6.717,6.563,6.563,0,0,1-6.7,6.717m0-1.868c2.6,0,4.491-1.887,4.491-4.849s-1.886-4.812-4.491-4.812-4.491,1.849-4.491,4.812,1.886,4.849,4.491,4.849" transform="translate(-154.682 -91.749)" fill="#e8e8e8"/>
      <path id="Caminho_1458" data-name="Caminho 1458" d="M441.751,130.384H358.968a35.469,35.469,0,0,0-35.429,35.43V248.6c0,19.536,15.893,35.429,43.253,35.429h82.783c11.712,0,27.6-15.893,27.6-35.429V165.814a35.469,35.469,0,0,0-35.429-35.43M419.8,179.6H393.5v-8.315h26.3a3.235,3.235,0,0,1,3.217,3.253v1.808A3.235,3.235,0,0,1,419.8,179.6m3.217,16.115v1.808a3.235,3.235,0,0,1-3.217,3.253H393.5V192.46h26.3a3.235,3.235,0,0,1,3.217,3.253M393.5,234.92h26.3a3.235,3.235,0,0,1,3.217,3.253v1.808a3.235,3.235,0,0,1-3.217,3.253H393.5ZM336.158,248.6V165.814A22.837,22.837,0,0,1,358.968,143h21.765v128.4H358.968a22.836,22.836,0,0,1-22.81-22.81m128.4,0a22.836,22.836,0,0,1-22.81,22.81H393.5V256H418.9a16.927,16.927,0,0,0,0-33.852H395.873a2.372,2.372,0,0,1-2.371-2.371v-3.865a2.372,2.372,0,0,1,2.371-2.372H418.9a16.956,16.956,0,0,0,13.048-27.515A16.955,16.955,0,0,0,418.9,158.515H393.5V143h48.249a22.837,22.837,0,0,1,22.81,22.811Z" transform="translate(-68.378 -27.556)" fill="#ffd400"/>
    </g>
    <rect id="Retângulo_324" data-name="Retângulo 324" width="663.962" height="469.468" transform="translate(960 2348.473)" fill="none"/>
    <path id="Caminho_1461" data-name="Caminho 1461" d="M224.948,405.749H209.569l-24.1-27.006h28.976q3.093,0,3.093-4.97t-3.093-4.97H179.561v36.946H168.309v-48.2H215.1a12.044,12.044,0,0,1,10.222,5.065,19.681,19.681,0,0,1,0,22.318,12.044,12.044,0,0,1-10.222,5.062h-4.314Z" transform="translate(924.429 2272.907)" fill="#ffd400"/>
    <path id="Caminho_1462" data-name="Caminho 1462" d="M310.116,405.749H298.863V390.464H269.231V379.212h29.632v-6.753q0-3.655-2.438-3.656H264.542q-2.346,0-2.345,3.648v33.3H250.945V372.429a15.512,15.512,0,0,1,3.8-10.482,12.351,12.351,0,0,1,9.8-4.4h31.883a12.454,12.454,0,0,1,9.893,4.4,15.512,15.512,0,0,1,3.8,10.482Z" transform="translate(906.964 2272.907)" fill="#ffd400"/>
    <path id="Caminho_1463" data-name="Caminho 1463" d="M389.495,390.886a15.481,15.481,0,0,1-3.657,10.376,12.658,12.658,0,0,1-9.94,4.487H334.262V394.5H375.9q2.343,0,2.344-3.61t-2.344-3.61H345.609a12.64,12.64,0,0,1-9.94-4.5,14.969,14.969,0,0,1-3.751-10.316,15.445,15.445,0,0,1,3.845-10.5,12.479,12.479,0,0,1,9.846-4.407h41.635V368.8H345.519q-2.349,0-2.349,3.657,0,3.564,2.349,3.563H375.87a12.7,12.7,0,0,1,9.961,4.487,15.468,15.468,0,0,1,3.664,10.376" transform="translate(889.851 2272.907)" fill="#ffd400"/>
    <path id="Caminho_1464" data-name="Caminho 1464" d="M471.259,373.867a17.513,17.513,0,0,1-3.564,11.065,12.035,12.035,0,0,1-10.127,5.158H422.122v15.66H410.868v-48.2h46.7a12.039,12.039,0,0,1,10.127,5.158,17.909,17.909,0,0,1,3.564,11.159m-11.253,0q0-5.064-2.438-5.064H422.122v10.034h35.446q2.438,0,2.438-4.97" transform="translate(873.166 2272.907)" fill="#ffd400"/>
    <path id="Caminho_1465" data-name="Caminho 1465" d="M550.026,405.749H534.647l-24.1-27.006h28.977q3.095,0,3.094-4.97t-3.094-4.97H504.64v36.946H493.387v-48.2H540.18a12.042,12.042,0,0,1,10.222,5.065,19.682,19.682,0,0,1,0,22.318,12.042,12.042,0,0,1-10.222,5.062h-4.313Z" transform="translate(855.726 2272.907)" fill="#ffd400"/>
    <rect id="Retângulo_326" data-name="Retângulo 326" width="11.253" height="48.2" transform="translate(1414.285 2630.454)" fill="#ffd400"/>
    <path id="Caminho_1466" data-name="Caminho 1466" d="M658.877,405.749H647.624V376.4L627.557,405l-20.067-28.6v29.351H596.236v-48.2h11.816L627.557,385.4l19.6-27.851h11.721Z" transform="translate(833.99 2272.907)" fill="#ffd400"/>
    <path id="Caminho_1467" data-name="Caminho 1467" d="M733.089,368.8H692.86v7.22h37.6v11.253h-37.6V394.5H733v11.253H681.608v-48.2h51.481Z" transform="translate(815.947 2272.907)" fill="#ffd400"/>
    <path id="Caminho_1468" data-name="Caminho 1468" d="M418.451,434.124a6.253,6.253,0,0,1,6.1,3.944H421.96a3.662,3.662,0,0,0-3.51-2.057c-2.6,0-4.491,1.849-4.491,4.811s1.886,4.831,4.491,4.831a3.664,3.664,0,0,0,3.51-2.056h2.586a6.236,6.236,0,0,1-6.1,3.924,6.7,6.7,0,1,1,0-13.4" transform="translate(872.979 2256.724)" fill="#e8e8e8"/>
    <path id="Caminho_1469" data-name="Caminho 1469" d="M443.188,436.07h-5.1v3.849h4.528v1.754h-4.528v4.019h5.1v1.756h-7.246V434.315h7.246Z" transform="translate(867.867 2256.683)" fill="#e8e8e8"/>
    <path id="Caminho_1470" data-name="Caminho 1470" d="M464.039,434.315v13.133h-2.151l-6.473-9.793v9.793h-2.15V434.315h2.15l6.473,9.775v-9.775Z" transform="translate(864.206 2256.683)" fill="#e8e8e8"/>
    <path id="Caminho_1471" data-name="Caminho 1471" d="M474.438,434.339h9.152v1.755H480.1v11.359h-2.152V436.094h-3.509Z" transform="translate(859.731 2256.678)" fill="#e8e8e8"/>
    <path id="Caminho_1472" data-name="Caminho 1472" d="M498.107,434.339c3.113,0,4.641,1.793,4.641,3.925a3.734,3.734,0,0,1-3.038,3.755l3.245,5.434h-2.565l-3.02-5.245h-1.642v5.245h-2.15V434.339Zm0,1.755h-2.379v4.4h2.379c1.679,0,2.434-.924,2.434-2.226,0-1.322-.755-2.17-2.434-2.17" transform="translate(855.685 2256.678)" fill="#e8e8e8"/>
    <path id="Caminho_1473" data-name="Caminho 1473" d="M519.274,447.539a6.708,6.708,0,1,1,6.7-6.717,6.564,6.564,0,0,1-6.7,6.717m0-1.868c2.6,0,4.491-1.887,4.491-4.849s-1.887-4.812-4.491-4.812-4.491,1.849-4.491,4.812,1.887,4.849,4.491,4.849" transform="translate(851.671 2256.724)" fill="#e8e8e8"/>
    <path id="Caminho_1474" data-name="Caminho 1474" d="M555.733,444.769h-5.491l-.944,2.68h-2.245l4.7-13.133h2.491l4.7,13.133h-2.264ZM553,436.919l-2.151,6.1h4.283Z" transform="translate(844.384 2256.683)" fill="#e8e8e8"/>
    <path id="Caminho_1475" data-name="Caminho 1475" d="M569.471,434.339h2.151V442.7a2.972,2.972,0,1,0,5.944,0v-8.359h2.15v8.321c0,3.339-2.415,4.924-5.151,4.924-2.755,0-5.095-1.585-5.095-4.924Z" transform="translate(839.646 2256.678)" fill="#e8e8e8"/>
    <path id="Caminho_1476" data-name="Caminho 1476" d="M589.927,434.339h9.151v1.755h-3.491v11.359h-2.151V436.094h-3.51Z" transform="translate(835.323 2256.678)" fill="#e8e8e8"/>
    <path id="Caminho_1477" data-name="Caminho 1477" d="M614.857,447.539a6.708,6.708,0,1,1,6.7-6.717,6.563,6.563,0,0,1-6.7,6.717m0-1.868c2.6,0,4.491-1.887,4.491-4.849s-1.886-4.812-4.491-4.812-4.491,1.849-4.491,4.812,1.886,4.849,4.491,4.849" transform="translate(831.47 2256.724)" fill="#e8e8e8"/>
    <path id="Caminho_1478" data-name="Caminho 1478" d="M632.61,434.339h2.32l4.6,10.283,4.585-10.283h2.3v13.114h-2.152v-8.982l-4,8.982H638.78l-4.019-8.982v8.982H632.61Z" transform="translate(826.302 2256.678)" fill="#e8e8e8"/>
    <path id="Caminho_1479" data-name="Caminho 1479" d="M664.287,447.539a6.708,6.708,0,1,1,6.7-6.717,6.563,6.563,0,0,1-6.7,6.717m0-1.868c2.6,0,4.491-1.887,4.491-4.849s-1.887-4.812-4.491-4.812-4.491,1.849-4.491,4.812,1.886,4.849,4.491,4.849" transform="translate(821.023 2256.724)" fill="#e8e8e8"/>
    <path id="Caminho_1480" data-name="Caminho 1480" d="M681.179,434.339h9.151v1.755H686.84v11.359h-2.151V436.094h-3.51Z" transform="translate(816.038 2256.678)" fill="#e8e8e8"/>
    <rect id="Retângulo_327" data-name="Retângulo 327" width="2.152" height="13.114" transform="translate(1512.311 2691.018)" fill="#e8e8e8"/>
    <path id="Caminho_1481" data-name="Caminho 1481" d="M720.176,434.339h2.264l-4.924,13.114h-2.491l-4.945-13.114h2.3l3.887,10.906Z" transform="translate(809.929 2256.678)" fill="#e8e8e8"/>
    <path id="Caminho_1482" data-name="Caminho 1482" d="M738.6,447.539a6.708,6.708,0,1,1,6.7-6.717,6.563,6.563,0,0,1-6.7,6.717m0-1.868c2.6,0,4.491-1.887,4.491-4.849s-1.886-4.812-4.491-4.812-4.491,1.849-4.491,4.812,1.886,4.849,4.491,4.849" transform="translate(805.318 2256.724)" fill="#e8e8e8"/>
    <path id="Caminho_1459" data-name="Caminho 1459" d="M441.751,130.384H358.968a35.469,35.469,0,0,0-35.429,35.43V248.6c0,19.536,15.893,35.429,43.253,35.429h82.783c11.712,0,27.6-15.893,27.6-35.429V165.814a35.469,35.469,0,0,0-35.429-35.43M419.8,179.6H393.5v-8.315h26.3a3.235,3.235,0,0,1,3.217,3.253v1.808A3.235,3.235,0,0,1,419.8,179.6m3.217,16.115v1.808a3.235,3.235,0,0,1-3.217,3.253H393.5V192.46h26.3a3.235,3.235,0,0,1,3.217,3.253M393.5,234.92h26.3a3.235,3.235,0,0,1,3.217,3.253v1.808a3.235,3.235,0,0,1-3.217,3.253H393.5ZM336.158,248.6V165.814A22.837,22.837,0,0,1,358.968,143h21.765v128.4H358.968a22.836,22.836,0,0,1-22.81-22.81m128.4,0a22.836,22.836,0,0,1-22.81,22.81H393.5V256H418.9a16.927,16.927,0,0,0,0-33.852H395.873a2.372,2.372,0,0,1-2.371-2.371v-3.865a2.372,2.372,0,0,1,2.371-2.372H418.9a16.956,16.956,0,0,0,13.048-27.515A16.955,16.955,0,0,0,418.9,158.515H393.5V143h48.249a22.837,22.837,0,0,1,22.81,22.811Z" transform="translate(891.622 2320.917)" fill="#ffd400"/>
    <rect id="Retângulo_325" data-name="Retângulo 325" width="663.962" height="469.468" transform="translate(960 2348.473)" fill="none"/>
  </g>
</svg>
