<svg xmlns="http://www.w3.org/2000/svg" width="80.991" height="79.516" viewBox="0 0 80.991 79.516">
  <g id="pneu" transform="translate(-2.575 -3.999)">
    <path id="Caminho_1523" data-name="Caminho 1523" d="M104.889,98.1H82.5A5,5,0,0,1,77.5,93.107V49.654A5,5,0,0,1,82.5,44.659H104.89a5,5,0,0,1,4.995,4.995V93.107a5,5,0,0,1-5,4.995Z" transform="translate(-50.598 -27.623)" fill="none"/>
    <path id="Caminho_1524" data-name="Caminho 1524" d="M21.764,111.19H12.631v-3.9l-3.8,3.32-3.8,3.32,3.8,3.32,3.8,3.32v-3.9h9.133Z" transform="translate(-1.359 -70.174)" fill="none"/>
    <path id="Caminho_1525" data-name="Caminho 1525" d="M198.77,116.672H207.9v3.9l3.8-3.32,3.8-3.32-3.8-3.32-3.8-3.32v3.9H198.77Z" transform="translate(-132.984 -70.174)" fill="none"/>
    <path id="Caminho_1526" data-name="Caminho 1526" d="M231.058,110.611l-3.8-3.32v2.24l1.237,1.08,3.8,3.32-3.8,3.32-1.237,1.08v2.24l3.8-3.32,3.8-3.32Z" transform="translate(-152.337 -70.174)" fill="none"/>
    <path id="Caminho_1528" data-name="Caminho 1528" d="M96.187,9.588,94.064,5.509,92.675,8.414a51.678,51.678,0,0,0-41.8,0L49.486,5.509,47.363,9.588,45.24,13.666l4.507.91,4.507.91-1.369-2.864a47.035,47.035,0,0,1,37.779,0L89.3,15.486l4.507-.91,4.507-.91Z" transform="translate(-28.68)" fill="none"/>
    <path id="Caminho_1529" data-name="Caminho 1529" d="M47.361,222.071l2.123,4.079,1.388-2.905a51.678,51.678,0,0,0,41.8,0l1.388,2.905,2.123-4.079,2.123-4.079-4.507-.91-4.507-.91,1.369,2.864a47.035,47.035,0,0,1-37.779,0l1.369-2.864-4.507.91-4.507.91Z" transform="translate(-28.678 -144.145)" fill="none"/>
    <g id="Grupo_1184" data-name="Grupo 1184" transform="translate(3.025 16.394)">
      <path id="Caminho_1532" data-name="Caminho 1532" d="M103.531,97.384H81.138A5.643,5.643,0,0,1,75.5,91.748V48.294a5.643,5.643,0,0,1,5.636-5.636h22.393a5.643,5.643,0,0,1,5.636,5.636V91.748A5.643,5.643,0,0,1,103.531,97.384ZM81.138,43.941a4.358,4.358,0,0,0-4.353,4.354V91.748A4.359,4.359,0,0,0,81.138,96.1h22.393a4.358,4.358,0,0,0,4.353-4.354V48.294a4.359,4.359,0,0,0-4.353-4.354Z" transform="translate(-52.264 -42.658)" fill="#303030" stroke="#303030" stroke-width="1.3"/>
      <path id="Caminho_1533" data-name="Caminho 1533" d="M109.124,97.384a.641.641,0,0,1-.641-.641V43.3a.641.641,0,0,1,1.283,0V96.743A.641.641,0,0,1,109.124,97.384Z" transform="translate(-74.67 -42.658)" fill="#303030" stroke="#303030" stroke-width="1.3"/>
      <path id="Caminho_1534" data-name="Caminho 1534" d="M126.641,97.384a.641.641,0,0,1-.641-.641V43.3a.641.641,0,1,1,1.283,0V96.743A.641.641,0,0,1,126.641,97.384Z" transform="translate(-86.571 -42.658)" fill="#303030" stroke="#303030" stroke-width="1.3"/>
      <path id="Caminho_1535" data-name="Caminho 1535" d="M144.158,97.384a.641.641,0,0,1-.641-.641V43.3a.641.641,0,1,1,1.283,0V96.743A.641.641,0,0,1,144.158,97.384Z" transform="translate(-98.471 -42.658)" fill="#303030" stroke="#303030" stroke-width="1.3"/>
      <path id="Caminho_1536" data-name="Caminho 1536" d="M79.477,67.3a.636.636,0,0,1-.382-.127L75.76,64.7a.641.641,0,1,1,.765-1.03l3.335,2.477a.641.641,0,0,1-.383,1.156Z" transform="translate(-52.263 -56.845)" fill="#303030" stroke="#303030" stroke-width="1.3"/>
      <path id="Caminho_1537" data-name="Caminho 1537" d="M79.477,96.6a.636.636,0,0,1-.382-.127L75.76,93.994a.641.641,0,1,1,.765-1.03l3.335,2.477a.641.641,0,0,1-.383,1.156Z" transform="translate(-52.263 -76.749)" fill="#303030" stroke="#303030" stroke-width="1.3"/>
      <path id="Caminho_1538" data-name="Caminho 1538" d="M79.477,125.9a.636.636,0,0,1-.382-.127l-3.335-2.477a.641.641,0,1,1,.765-1.03l3.335,2.477a.641.641,0,0,1-.383,1.156Z" transform="translate(-52.263 -96.653)" fill="#303030" stroke="#303030" stroke-width="1.3"/>
      <path id="Caminho_1539" data-name="Caminho 1539" d="M79.477,155.195a.636.636,0,0,1-.382-.127l-3.335-2.477a.641.641,0,1,1,.765-1.03l3.335,2.477a.641.641,0,0,1-.383,1.156Z" transform="translate(-52.263 -116.558)" fill="#303030" stroke="#303030" stroke-width="1.3"/>
      <path id="Caminho_1540" data-name="Caminho 1540" d="M79.477,184.493a.636.636,0,0,1-.382-.127l-3.335-2.477a.641.641,0,0,1,.765-1.03l3.335,2.477a.641.641,0,0,1-.383,1.156Z" transform="translate(-52.263 -136.463)" fill="#303030" stroke="#303030" stroke-width="1.3"/>
      <path id="Caminho_1541" data-name="Caminho 1541" d="M166.74,67.3a.641.641,0,0,1-.383-1.156l3.335-2.477a.641.641,0,0,1,.765,1.03l-3.335,2.477a.64.64,0,0,1-.382.127Z" transform="translate(-113.813 -56.845)" fill="#303030" stroke="#303030" stroke-width="1.3"/>
      <path id="Caminho_1542" data-name="Caminho 1542" d="M166.74,96.6a.641.641,0,0,1-.383-1.156l3.335-2.477a.641.641,0,0,1,.765,1.03l-3.335,2.477a.638.638,0,0,1-.382.127Z" transform="translate(-113.813 -76.749)" fill="#303030" stroke="#303030" stroke-width="1.3"/>
      <path id="Caminho_1543" data-name="Caminho 1543" d="M166.74,125.9a.641.641,0,0,1-.383-1.156l3.335-2.477a.641.641,0,0,1,.765,1.03l-3.335,2.477a.638.638,0,0,1-.382.127Z" transform="translate(-113.813 -96.653)" fill="#303030" stroke="#303030" stroke-width="1.3"/>
      <path id="Caminho_1544" data-name="Caminho 1544" d="M166.74,155.195a.641.641,0,0,1-.383-1.156l3.335-2.477a.641.641,0,1,1,.765,1.03l-3.335,2.477a.64.64,0,0,1-.382.127Z" transform="translate(-113.813 -116.558)" fill="#303030" stroke="#303030" stroke-width="1.3"/>
      <path id="Caminho_1545" data-name="Caminho 1545" d="M166.74,184.493a.641.641,0,0,1-.383-1.156l3.335-2.477a.641.641,0,0,1,.765,1.03l-3.335,2.477a.638.638,0,0,1-.382.127Z" transform="translate(-113.813 -136.463)" fill="#303030" stroke="#303030" stroke-width="1.3"/>
      <path id="Caminho_1548" data-name="Caminho 1548" d="M11.271,119.853a.641.641,0,0,1-.422-.158l-7.6-6.64a.641.641,0,0,1,0-.966l7.6-6.64a.641.641,0,0,1,1.063.483v3.258H20.4a.641.641,0,0,1,.641.641v5.482a.641.641,0,0,1-.641.641H11.912v3.258a.639.639,0,0,1-.641.641Zm-6.63-7.281L10.63,117.8v-2.488a.641.641,0,0,1,.641-.641h8.492v-4.2H11.271a.641.641,0,0,1-.641-.641v-2.488Z" transform="translate(-3.025 -85.209)" fill="#303030" stroke="#303030" stroke-width="0.9"/>
      <path id="Caminho_1549" data-name="Caminho 1549" d="M206.545,119.852a.641.641,0,0,1-.641-.641v-3.258h-8.492a.642.642,0,0,1-.641-.641V109.83a.642.642,0,0,1,.641-.641H205.9v-3.258a.641.641,0,0,1,1.063-.483l7.6,6.64a.641.641,0,0,1,0,.966l-7.6,6.64a.637.637,0,0,1-.422.159Zm-8.492-5.182h8.492a.641.641,0,0,1,.641.641V117.8l5.988-5.228-5.988-5.229v2.488a.641.641,0,0,1-.641.641h-8.492Z" transform="translate(-134.65 -85.208)" fill="#303030" stroke="#303030" stroke-width="0.8"/>
    </g>
  </g>
</svg>
