<svg xmlns="http://www.w3.org/2000/svg" width="110.406" height="110.406" viewBox="0 0 110.406 110.406">
  <path id="Subtração_2" data-name="Subtração 2" d="M89.749,109.406H30.8c-9.277,0-17.129-2.558-22.706-7.4a23.284,23.284,0,0,1-6.021-8.02A23.626,23.626,0,0,1,0,84.178V25.229A25.257,25.257,0,0,1,25.229,0H84.177a25.257,25.257,0,0,1,25.229,25.229V84.178a26.626,26.626,0,0,1-1.9,9.811,29.057,29.057,0,0,1-4.8,8.02,24.475,24.475,0,0,1-6.366,5.412A13.573,13.573,0,0,1,89.749,109.406Zm-49.022-9.021h9.093v.035H84.177A16.261,16.261,0,0,0,100.42,84.178V25.229A16.261,16.261,0,0,0,84.177,8.986H81.409V8.846H31.427v.139h-6.2A16.261,16.261,0,0,0,8.986,25.229V84.178A16.261,16.261,0,0,0,25.229,100.42h15.5v-.034Z" transform="translate(0.5 0.5)" fill="#ffd400" stroke="rgba(0,0,0,0)" stroke-miterlimit="10" stroke-width="1"/>
</svg>
