<svg xmlns="http://www.w3.org/2000/svg" width="83.014" height="55.342" viewBox="0 0 83.014 55.342">
  <g id="car_1_" data-name="car (1)" transform="translate(0 -80)">
    <g id="Grupo_1159" data-name="Grupo 1159" transform="translate(0 80)">
      <g id="Grupo_1158" data-name="Grupo 1158">
        <path id="Caminho_1501" data-name="Caminho 1501" d="M82.608,105.309l-2.767-2.767a1.383,1.383,0,0,0-.978-.405H74.712a1.384,1.384,0,0,0-1.384,1.384v6.918H70.562v-9.685a1.384,1.384,0,0,0-1.384-1.384H60.233l-5.119-7.686a1.384,1.384,0,0,0-1.155-.616h-8.3V88.3h9.685a1.384,1.384,0,0,0,1.384-1.384V81.384A1.384,1.384,0,0,0,55.342,80H27.671a1.384,1.384,0,0,0-1.384,1.384v5.534A1.384,1.384,0,0,0,27.671,88.3h9.685v2.767h-8.3a1.384,1.384,0,0,0-1.151.616L22.78,99.37H15.219a1.384,1.384,0,0,0-1.384,1.384v8.3H11.068v-8.3A1.384,1.384,0,0,0,9.685,99.37H4.151A1.384,1.384,0,0,0,3,99.986L.232,104.136A1.393,1.393,0,0,0,0,104.9v4.151a1.393,1.393,0,0,0,.232.768l2.535,3.8v12.037a1.384,1.384,0,0,0,1.384,1.384H9.685a1.384,1.384,0,0,0,1.384-1.384v-8.3h2.767v8.3a1.384,1.384,0,0,0,1.384,1.384H22.78l5.119,7.686a1.384,1.384,0,0,0,1.155.616H69.178a1.384,1.384,0,0,0,1.384-1.384V121.507h2.767v9.685a1.384,1.384,0,0,0,1.384,1.384h4.151a1.383,1.383,0,0,0,.978-.405l2.767-2.767a1.383,1.383,0,0,0,.405-.978V106.288A1.383,1.383,0,0,0,82.608,105.309ZM8.3,110.438v13.836H5.534V113.205a1.393,1.393,0,0,0-.232-.768l-2.535-3.8v-3.321l2.124-3.182H8.3Zm5.534,4.151H11.068v-2.767h2.767ZM29.055,85.534V82.767h24.9v2.767ZM42.89,88.3v2.767H40.123V88.3Zm19.37,44.274H29.795l-5.119-7.686a1.384,1.384,0,0,0-1.155-.616H16.6V102.137h6.918a1.384,1.384,0,0,0,1.151-.616l5.123-7.686H53.219l5.119,7.686a1.384,1.384,0,0,0,1.155.616H62.26Zm5.534-20.753v20.753H65.027V102.137h2.767Zm5.534,6.918H70.562v-5.534h2.767Zm6.918,9.112-1.956,1.956H76.1V104.9H78.29l1.956,1.956Z" transform="translate(0 -80)"/>
      </g>
    </g>
    <g id="Grupo_1161" data-name="Grupo 1161" transform="translate(29.055 97.986)">
      <g id="Grupo_1160" data-name="Grupo 1160" transform="translate(0 0)">
        <path id="Caminho_1502" data-name="Caminho 1502" d="M192.54,196.9a1.384,1.384,0,0,0-1.02-.448h-6.576l2.392-10.768a1.384,1.384,0,0,0-2.286-1.32l-16.6,15.219a1.384,1.384,0,0,0,.935,2.4h6.576l-2.392,10.768a1.384,1.384,0,0,0,2.286,1.32l16.6-15.219A1.384,1.384,0,0,0,192.54,196.9Zm-15.319,12.165,1.814-8.163a1.384,1.384,0,0,0-1.35-1.684H172.94l10.742-9.847-1.814,8.163a1.384,1.384,0,0,0,1.35,1.684h4.744Z" transform="translate(-167.999 -184)"/>
      </g>
    </g>
    <g id="Grupo_1163" data-name="Grupo 1163" transform="translate(19.641 110.119)">
      <g id="Grupo_1162" data-name="Grupo 1162" transform="translate(0 0)">
        <rect id="Ret창ngulo_378" data-name="Ret창ngulo 378" width="2.619" height="11.785"/>
      </g>
    </g>
    <g id="Grupo_1165" data-name="Grupo 1165" transform="translate(19.641 104.881)">
      <g id="Grupo_1164" data-name="Grupo 1164" transform="translate(0 0)">
        <rect id="Ret창ngulo_379" data-name="Ret창ngulo 379" width="2.619" height="2.619"/>
      </g>
    </g>
  </g>
</svg>
