<svg xmlns="http://www.w3.org/2000/svg" width="75.857" height="75.857" viewBox="0 0 75.857 75.857">
  <g id="suspension" transform="translate(1.25 1.25)">
    <g id="Grupo_1171" data-name="Grupo 1171">
      <g id="Grupo_1170" data-name="Grupo 1170">
        <path id="Caminho_1510" data-name="Caminho 1510" d="M309.4,0a10.685,10.685,0,0,0-10.468,12.892L293.7,18.12l-3.688-1.229a1.528,1.528,0,0,0-.967,2.9L307.384,25.9a1.528,1.528,0,0,0,.967-2.9l-2.24-.747,1.091-1.091A10.7,10.7,0,1,0,309.4,0Zm0,15.283a4.585,4.585,0,1,1,4.585-4.585A4.59,4.59,0,0,1,309.4,15.283Z" transform="translate(-246.736)" fill="none" stroke="#303030" stroke-width="2.5"/>
        <path id="Caminho_1511" data-name="Caminho 1511" d="M180.352,251.526l-2.4-.8a1.5,1.5,0,0,0,.1-.91,1.529,1.529,0,0,0-1-1.1l-9.17-3.057a1.527,1.527,0,0,0-1.564.369l-.613.613-3.688-1.229a1.528,1.528,0,0,0-.967,2.9l18.339,6.113a1.528,1.528,0,0,0,.967-2.9Z" transform="translate(-135.795 -213.11)" fill="none" stroke="#303030" stroke-width="2.5"/>
        <path id="Caminho_1512" data-name="Caminho 1512" d="M223.018,208.852l-2.4-.8a1.5,1.5,0,0,0,.1-.91,1.529,1.529,0,0,0-1-1.1l-9.17-3.057a1.515,1.515,0,0,0-1.564.369l-.613.613-3.688-1.229a1.528,1.528,0,0,0-.967,2.9l18.339,6.113a1.528,1.528,0,0,0,.967-2.9Z" transform="translate(-169.044 -178.208)" fill="none" stroke="#303030" stroke-width="2.5"/>
        <path id="Caminho_1514" data-name="Caminho 1514" d="M33.858,282.245l-9.17-3.057a1.519,1.519,0,0,0-1.564.369l-.2.2-1.976-1.976a1.528,1.528,0,0,0-2.161,0l-7.641,7.641a1.5,1.5,0,0,0-.418,1.232A12.195,12.195,0,1,0,24.3,300.228c.051.005.1.03.151.03a1.524,1.524,0,0,0,1.081-.448l7.641-7.641a1.528,1.528,0,0,0,0-2.161L31.2,288.031l3.257-3.257a1.527,1.527,0,0,0-.6-2.53Zm-21.632,22.6a6.113,6.113,0,1,1,6.113-6.113A6.119,6.119,0,0,1,12.226,304.842Z" transform="translate(0 -237.598)" fill="none" stroke="#303030" stroke-width="2.5"/>
      </g>
    </g>
  </g>
</svg>
