<svg id="taxi" xmlns="http://www.w3.org/2000/svg" width="43.039" height="43.039" viewBox="0 0 43.039 43.039">
  <path id="Caminho_1515" data-name="Caminho 1515" d="M43.039,17.722V13.9a3.774,3.774,0,0,0-3.77-3.77H37.7L36.432,5.063h-7.8L26.1,0H16.94L14.408,5.063h-7.8L5.341,10.127H3.77A3.774,3.774,0,0,0,0,13.9v3.825H3.442l-.633,2.532H0V37.976H2.532v5.063h7.6V37.976h21.52v5.063h7.6V37.976h3.8V20.254H40.23L39.6,17.722Zm-3.77-5.063A1.239,1.239,0,0,1,40.507,13.9V15.19H38.964l-.633-2.532ZM18.5,2.532h6.03L25.8,5.063H17.238ZM2.532,15.19V13.9A1.239,1.239,0,0,1,3.77,12.659h.938L4.075,15.19Zm0,7.6H7.6v2.532H2.532ZM7.6,40.507H5.063V37.976H7.6Zm7.6-5.063V32.912H27.849v2.532Zm21.52,5.063H34.178V37.976H36.71Zm2.532-5.063H30.381V30.381H12.659v5.063H2.532v-7.6h7.6V22.785H32.912v5.063h7.6v7.6Zm1.266-10.127H35.444V22.785h5.063ZM24.269,20.254a3.8,3.8,0,0,1,7.16,0Zm9.782,0a6.33,6.33,0,0,0-12.4,0H5.419L8.584,7.6h11.67v2.532H17.722v2.532h7.6V10.127H22.785V7.6h11.67L37.62,20.254Z"/>
  <path id="Caminho_1516" data-name="Caminho 1516" d="M180,300h12.659v2.532H180Z" transform="translate(-164.81 -274.683)"/>
</svg>
